<svg width="97" height="23" viewBox="0 0 97 23" fill="none" xmlns="http://www.w3.org/2000/svg">
<path d="M6.29371 21.6802C6.16931 20.6095 6.09467 19.3894 6.09467 17.9203V14.7331H10.0257C14.8525 14.7331 17.6889 12.0938 17.6889 7.66162C17.6889 3.32906 14.9769 0.963584 10.0506 0.963584H4.60185C3.00952 0.963584 2.11383 0.938684 0.944458 0.888885C1.09374 2.05917 1.1435 3.17966 1.1435 4.52425V17.995C1.1435 19.4641 1.09374 20.5846 0.944458 21.6802H6.29371ZM6.09467 10.5002V5.19654H9.80182C11.5932 5.19654 12.5635 6.09293 12.5635 7.81102C12.5635 9.5291 11.5434 10.5002 9.80182 10.5002H6.09467Z" fill="#56ACE0"/>
<path d="M24.8468 21.6802C24.6975 20.3854 24.6477 19.3396 24.6477 17.9203V12.8657C25.6429 11.2223 26.9865 10.2761 28.4046 10.2761C29.1013 10.2761 29.6487 10.5002 29.997 10.9484C30.2955 11.3717 30.3951 11.8199 30.3951 12.8159V17.9203C30.3951 19.4392 30.3453 20.485 30.196 21.6802H35.3711C35.2467 20.6344 35.1721 19.3894 35.1721 17.9452V11.6954C35.1721 9.7283 34.7491 8.50821 33.7539 7.51222C32.8333 6.59093 31.4898 6.11783 29.7979 6.11783C27.6831 6.11783 26.1157 6.74033 24.6229 8.18451C24.6229 7.96042 24.6477 7.56202 24.6477 7.36282V4.72345C24.6477 2.95557 24.6975 2.05917 24.8468 0.963584H19.6966C19.8458 1.93468 19.8956 3.00536 19.8956 4.72345V17.9203C19.8956 19.4641 19.8458 20.5099 19.6966 21.6802H24.8468Z" fill="#56ACE0"/>
<path d="M45.5067 22.2529C50.4579 22.2529 53.742 18.9661 53.742 14.0111C53.742 9.0809 50.5574 5.91863 45.5316 5.91863C40.5058 5.91863 37.3211 9.0809 37.3211 14.0609C37.3211 19.0657 40.5058 22.2529 45.5067 22.2529ZM45.5565 9.6536C47.6713 9.6536 48.9402 11.297 48.9402 14.0858C48.9402 16.8496 47.6962 18.4681 45.5316 18.4681C43.367 18.4681 42.0732 16.7998 42.0732 14.036C42.0732 11.297 43.367 9.6536 45.5565 9.6536Z" fill="#56ACE0"/>
<path d="M60.9037 21.6802C60.7544 20.3854 60.7046 19.3396 60.7046 17.9203V12.8906C61.7745 11.1476 63.0185 10.2761 64.4118 10.2761C65.1582 10.2761 65.7304 10.5251 66.0539 10.9733C66.3524 11.3966 66.452 11.8199 66.452 12.8159V17.9203C66.452 19.4392 66.4022 20.485 66.2529 21.6802H71.428C71.3036 20.6344 71.229 19.3894 71.229 17.9452V11.6954C71.229 9.7283 70.806 8.50821 69.8108 7.51222C68.8902 6.59093 67.5218 6.11783 65.8051 6.11783C63.7649 6.11783 62.2472 6.74033 60.6797 8.23431C60.6797 8.06001 60.7046 7.68652 60.7046 7.53712V6.49133H55.7535C55.9027 7.48732 55.9525 8.53311 55.9525 10.2512V17.9203C55.9525 19.4641 55.9027 20.5099 55.7535 21.6802H60.9037Z" fill="#56ACE0"/>
<path d="M74.0995 0.963584V4.69855H79.1502V0.963584H74.0995ZM74.0249 6.49133C74.1742 7.61182 74.2239 8.63271 74.2239 10.2512V17.9203C74.2239 19.5139 74.1742 20.4601 74.0249 21.6802H79.2248C79.1004 20.6095 79.0258 19.2649 79.0258 17.9203V10.2512C79.0258 8.50821 79.0756 7.51222 79.2248 6.49133H74.0249Z" fill="#56ACE0"/>
<path d="M97 15.4801C96.9751 15.2311 96.9751 15.0817 96.9751 14.9821C96.9005 13.5629 96.801 12.5171 96.6019 11.7203C95.7311 8.01022 93.0192 5.89374 89.1379 5.89374C84.3857 5.89374 81.226 9.1556 81.226 14.0858C81.226 16.5508 82.0221 18.6673 83.4901 20.1613C84.9082 21.5806 86.824 22.2778 89.2623 22.2778C91.7254 22.2778 93.7158 21.5557 95.134 20.1613C95.8306 19.4641 96.2038 18.8914 96.7761 17.5966L92.4469 16.3765C92.2479 17.0239 92.0737 17.2978 91.7005 17.6464C91.0536 18.244 90.1828 18.5677 89.1876 18.5677C87.2221 18.5677 86.0527 17.497 85.8039 15.4801H97ZM85.8786 12.044C86.3015 10.4006 87.3714 9.6038 89.1379 9.6038C90.8546 9.6038 91.9245 10.4504 92.2728 12.044H85.8786Z" fill="#56ACE0"/>
</svg>
